<svg id="_457bf273-24a3-4fd8-a857-e9b918267d6a" data-name="457bf273-24a3-4fd8-a857-e9b918267d6a" xmlns="http://www.w3.org/2000/svg" xmlns:xlink="http://www.w3.org/1999/xlink" viewBox="0 0 698 698"><defs><style>.cls-1{opacity:0.5;}.cls-2{fill:url(#linear-gradient);}.cls-3{fill:#f5f5f5;}.cls-4{fill:#5b4706;}.cls-5{fill:#333;}.cls-6{opacity:0.1;isolation:isolate;}.cls-7{fill:#fdb797;}.cls-8{fill:#493705;}</style><linearGradient id="linear-gradient" x1="349" y1="2" x2="349" y2="700" gradientTransform="matrix(1, 0, 0, -1, 0, 700)" gradientUnits="userSpaceOnUse"><stop offset="0" stop-color="gray" stop-opacity="0.25"/><stop offset="0.54" stop-color="gray" stop-opacity="0.12"/><stop offset="1" stop-color="gray" stop-opacity="0.1"/></linearGradient></defs><g class="cls-1"><circle class="cls-2" cx="349" cy="349" r="349"/></g><circle class="cls-3" cx="349.68" cy="346.77" r="341.64"/><path class="cls-4" d="M350,689.76a340,340,0,0,0,187.79-56.2c-12.59-68.8-60.5-72.72-60.5-72.72H213.09s-45.21,3.71-59.33,67A340.08,340.08,0,0,0,350,689.76Z"/><circle class="cls-5" cx="346.37" cy="339.57" r="164.9"/><path class="cls-6" d="M293.15,476.92H398.81v84.53A52.83,52.83,0,0,1,346,614.28h0a52.83,52.83,0,0,1-52.83-52.83h0V476.92h0Z"/><path class="cls-7" d="M296.5,473h99a3.35,3.35,0,0,1,3.35,3.35h0v81.18A52.83,52.83,0,0,1,346,610.37h0a52.83,52.83,0,0,1-52.83-52.83h0V476.35A3.35,3.35,0,0,1,296.5,473Z"/><path class="cls-6" d="M293.34,516.82a152.06,152.06,0,0,0,105.66.29v-13H293.34Z"/><circle class="cls-7" cx="346.37" cy="372.44" r="151.45"/><path class="cls-5" d="M227.74,272s1,1,3,2.64c16.72,14.09,103.39,77,240.91.93a147.28,147.28,0,0,0-116.68-57.92A153.28,153.28,0,0,0,227.74,272Z"/><path class="cls-5" d="M237.43,198.82c7.48-8.44,17.86-15,30.25-19,37.09-12.1,88-.92,121.28-17.59,3.88,8.81-4.18,17.88-15.62,17.48,24.35,7.63,53,15.06,71.39,4.88,3.19,14-4.13,26.62-18.8,32.51,21.3,7.6,40.94,25.55,37.31,41.65-2.4,10.74-14.58,17.74-28.23,20s-28.82.44-43.57-1.78C348.39,270.48,191.41,250.81,237.43,198.82Z"/><ellipse class="cls-7" cx="194.86" cy="372.3" rx="14.09" ry="26.42"/><ellipse class="cls-7" cx="497.8" cy="372.3" rx="14.09" ry="26.42"/><path class="cls-8" d="M293.15,560.84c.62,4.84,3.28,44.92,52.25,49.53,0,0-19.25,5.58-16.91,17.67C328.49,628,265.63,614.14,293.15,560.84Z"/><path class="cls-5" d="M223.18,280s10.8,35.16,42.29,42.22c0,0-1.43-5.29,0-8.3,0,0,41.38,25.89,80.1,27.4,0,0-9.95-7.23-9.09-15.36,0,0,54.4,33.12,94.2,24.69,0,0-10-12.82-7.73-28.43,0,0,14.32,16.39,43.81,17.29,0,0,16.89-19.87,5.44-56.31s-167-96.36-249-6.62"/><path class="cls-8" d="M399,560.84c-.62,4.84-3.28,44.92-52.25,49.53,0,0,19.25,5.58,16.91,17.67C363.62,628,426.48,614.14,399,560.84Z"/></svg>